HIERARCHY
ROOT hip
{
  OFFSET 0 0 0
  CHANNELS 6 Xposition Yposition Zposition Zrotation Yrotation Xrotation
  JOINT abdomen
  {
    OFFSET 0 20.6881 -0.73152
    CHANNELS 3 Zrotation Xrotation Yrotation
    JOINT chest
    {
      OFFSET 0 11.7043 -0.48768
      CHANNELS 3 Zrotation Xrotation Yrotation
      JOINT neck
      {
        OFFSET 0 22.1894 -2.19456
        CHANNELS 3 Zrotation Xrotation Yrotation
        JOINT head
        {
          OFFSET -0.24384 7.07133 1.2192
          CHANNELS 3 Zrotation Xrotation Yrotation
          JOINT leftEye
          {
            OFFSET 4.14528 8.04674 8.04672
            CHANNELS 3 Zrotation Xrotation Yrotation
            End Site
            {
              OFFSET 1 0 0
            }
          }
          JOINT rightEye
          {
            OFFSET -3.6576 8.04674 8.04672
            CHANNELS 3 Zrotation Xrotation Yrotation
            End Site
            {
              OFFSET 1 0 0
            }
          }
        }
      }
      JOINT rCollar
      {
        OFFSET -2.68224 19.2634 -4.8768
        CHANNELS 3 Zrotation Xrotation Yrotation
        JOINT rShldr
        {
          OFFSET -8.77824 -1.95073 1.46304
          CHANNELS 3 Zrotation Xrotation Yrotation
          JOINT rForeArm
          {
            OFFSET -28.1742 -1.7115 0.48768
            CHANNELS 3 Zrotation Xrotation Yrotation
            JOINT rHand
            {
              OFFSET -22.5879 0.773209 7.07136
              CHANNELS 3 Zrotation Xrotation Yrotation
              JOINT rThumb1
              {
                OFFSET -1.2192 -0.487915 3.41376
                CHANNELS 3 Zrotation Xrotation Yrotation
                JOINT rThumb2
                {
                  OFFSET -3.37035 -0.52449 3.41376
                  CHANNELS 3 Zrotation Xrotation Yrotation
                  End Site
                  {
                    OFFSET -1.78271 -1.18214 1.43049
                  }
                }
              }
              JOINT rIndex1
              {
                OFFSET -7.75947 0.938293 5.60832
                CHANNELS 3 Zrotation Xrotation Yrotation
                JOINT rIndex2
                {
                  OFFSET -2.54057 -0.884171 1.56538
                  CHANNELS 3 Zrotation Xrotation Yrotation
                  End Site
                  {
                    OFFSET -1.62519 -0.234802 1.16502
                  }
                }
              }
              JOINT rMid1
              {
                OFFSET -8.24714 1.18213 3.41376
                CHANNELS 3 Zrotation Xrotation Yrotation
                JOINT rMid2
                {
                  OFFSET -3.10165 -0.590103 1.0647
                  CHANNELS 3 Zrotation Xrotation Yrotation
                  End Site
                  {
                    OFFSET -2.48547 -0.328903 0.83742
                  }
                }
              }
              JOINT rRing1
              {
                OFFSET -8.82822 0.546677 1.51678
                CHANNELS 3 Zrotation Xrotation Yrotation
                JOINT rRing2
                {
                  OFFSET -2.60934 -0.819778 -0.0198488
                  CHANNELS 3 Zrotation Xrotation Yrotation
                  End Site
                  {
                    OFFSET -2.33842 -0.294052 0.168128
                  }
                }
              }
              JOINT rPinky1
              {
                OFFSET -8.27202 -0.0477905 -0.4584
                CHANNELS 3 Zrotation Xrotation Yrotation
                JOINT rPinky2
                {
                  OFFSET -1.82734 -0.647385 -0.700984
                  CHANNELS 3 Zrotation Xrotation Yrotation
                  End Site
                  {
                    OFFSET -1.69225 -0.51767 -0.607171
                  }
                }
              }
            }
          }
        }
      }
      JOINT lCollar
      {
        OFFSET 2.68224 19.2634 -4.8768
        CHANNELS 3 Zrotation Xrotation Yrotation
        JOINT lShldr
        {
          OFFSET 8.77824 -1.95073 1.46304
          CHANNELS 3 Zrotation Xrotation Yrotation
          JOINT lForeArm
          {
            OFFSET 28.1742 -1.7115 0.48768
            CHANNELS 3 Zrotation Xrotation Yrotation
            JOINT lHand
            {
              OFFSET 22.5879 0.773209 7.07136
              CHANNELS 3 Zrotation Xrotation Yrotation
              JOINT lThumb1
              {
                OFFSET 1.2192 -0.487915 3.41376
                CHANNELS 3 Zrotation Xrotation Yrotation
                JOINT lThumb2
                {
                  OFFSET 3.37035 -0.52449 3.41376
                  CHANNELS 3 Zrotation Xrotation Yrotation
                  End Site
                  {
                    OFFSET 1.78271 -1.18214 1.43049
                  }
                }
              }
              JOINT lIndex1
              {
                OFFSET 7.75947 0.938293 5.60832
                CHANNELS 3 Zrotation Xrotation Yrotation
                JOINT lIndex2
                {
                  OFFSET 2.54057 -0.884171 1.56538
                  CHANNELS 3 Zrotation Xrotation Yrotation
                  End Site
                  {
                    OFFSET 1.62519 -0.234802 1.16502
                  }
                }
              }
              JOINT lMid1
              {
                OFFSET 8.24714 1.18213 3.41376
                CHANNELS 3 Zrotation Xrotation Yrotation
                JOINT lMid2
                {
                  OFFSET 3.10165 -0.590103 1.0647
                  CHANNELS 3 Zrotation Xrotation Yrotation
                  End Site
                  {
                    OFFSET 2.48547 -0.328903 0.83742
                  }
                }
              }
              JOINT lRing1
              {
                OFFSET 8.82822 0.546677 1.51678
                CHANNELS 3 Zrotation Xrotation Yrotation
                JOINT lRing2
                {
                  OFFSET 2.60934 -0.819778 -0.0198488
                  CHANNELS 3 Zrotation Xrotation Yrotation
                  End Site
                  {
                    OFFSET 2.33842 -0.294052 0.168128
                  }
                }
              }
              JOINT lPinky1
              {
                OFFSET 8.27202 -0.0477905 -0.4584
                CHANNELS 3 Zrotation Xrotation Yrotation
                JOINT lPinky2
                {
                  OFFSET 1.82734 -0.647385 -0.700984
                  CHANNELS 3 Zrotation Xrotation Yrotation
                  End Site
                  {
                    OFFSET 1.69225 -0.51767 -0.607171
                  }
                }
              }
            }
          }
        }
      }
    }
  }
  JOINT rButtock
  {
    OFFSET -8.77824 4.35084 1.2192
    CHANNELS 3 Zrotation Xrotation Yrotation
    JOINT rThigh
    {
      OFFSET 0 -1.70687 -2.19456
      CHANNELS 3 Zrotation Xrotation Yrotation
      JOINT rShin
      {
        OFFSET 0 -36.8199 0.73152
        CHANNELS 3 Zrotation Xrotation Yrotation
        JOINT rFoot
        {
          OFFSET 0.73152 -45.1104 -5.12064
          CHANNELS 3 Zrotation Xrotation Yrotation
          End Site
          {
            OFFSET -1.1221 -3.69964 12.103
          }
        }
      }
    }
  }
  JOINT lButtock
  {
    OFFSET 8.77824 4.35084 1.2192
    CHANNELS 3 Zrotation Xrotation Yrotation
    JOINT lThigh
    {
      OFFSET 0 -1.70687 -2.19456
      CHANNELS 3 Zrotation Xrotation Yrotation
      JOINT lShin
      {
        OFFSET 0 -36.8199 0.73152
        CHANNELS 3 Zrotation Xrotation Yrotation
        JOINT lFoot
        {
          OFFSET -0.73152 -45.1104 -5.12064
          CHANNELS 3 Zrotation Xrotation Yrotation
          End Site
          {
            OFFSET 1.1221 -3.69964 12.103
          }
        }
      }
    }
  }
}
MOTION
Frames:	8
Frame Time:	0.00833333
3.7428000000000003 70.31389999999999 32.839 -11.71843 -27.193576 8.006348 6.982755 12.551002 -29.406395 2.930734 -7.667319 43.714971 10.024646 24.221199 100.804669 -35.257115 12.227279 -93.430092 0.000664 -0.0 -0.004117 0.000669 -0.0 -0.005134 -157.881299 -65.637959 175.444167 -109.721885 -56.457212 -74.824709 -4.44886 45.925422 -124.241445 157.630782 -37.122049 138.592403 -103.199041 36.331165 60.111809 -127.705644 -15.625472 73.369502 -46.207539 39.652691 36.319127 -170.216663 -19.906004 111.816941 0.328379 -0.961487 -0.181618 5.163819 -5.86355 -0.700052 -145.099602 -1.605487 -178.622313 10.346429 -0.136871 -9.013335 -144.786149 10.845447 -141.476998 -126.555575 -29.681204 -124.092848 0.165313 0.979175 -0.218983 110.992093 -33.842714 -167.261308 -178.862037 20.257213 95.529748 10.325614 11.608601 0.988615 171.653824 -9.336264 -89.94854 137.976606 9.897588 -69.372361 2.686461 4.226755 -1.583442 157.944748 -7.800779 -110.007475 -89.034257 -81.394601 -59.759222 -2.684724 0.996448 -0.310034 145.120989 0.310288 179.225332 -11.537446 20.329357 6.655292 157.329891 57.246853 150.51026 26.11077 -40.330439 26.572864 -0.0 -0.000533 -0.000188 -8.442439 -12.199241 -1.961481 36.72454 65.01227 107.785061 -40.130737 27.702975 -154.964558 179.999261 75.750175 0.000762 -157.014992 5.546959 102.837677 73.396463 -30.003025 6.774052 -5.329459 30.318241 -96.940721
3.7225 70.5056 33.1911 -12.104626 -27.002933 8.17047 8.463168 9.080467 -121.662724 5.224422 0.622376 135.612475 0.378839 33.962256 -175.243804 -0.383021 46.474679 -179.718702 0.003642 0.0 0.00288 -0.002068 -0.0 0.003349 3.192293 -25.838898 -5.073885 82.931382 35.888545 -44.783361 2.089105 -6.774483 96.994606 -8.630594 35.543971 2.613179 -103.199657 36.331836 60.111692 -145.577454 -23.172328 77.008696 -46.207598 39.65392 36.317553 6.731016 0.010056 -2.547272 23.904861 -61.33365 1.399216 -13.622141 36.346905 10.758388 0.004338 1.770325 0.557014 6.773409 29.707272 4.6736 -9.260517 -19.386114 -8.75496 -39.94178 -49.967564 -40.621763 9.651816 34.836133 -11.199421 150.063716 -37.958397 -124.074848 -121.804852 23.360506 48.62071 40.796316 56.216351 -21.918008 171.705004 -9.388894 -89.948705 -5.801596 -57.187104 -10.801153 2.684687 4.227106 -1.584227 -122.620235 -61.256487 -65.346334 160.673507 -6.667907 -143.24474 42.497062 58.273258 -36.59857 145.119624 0.267839 179.212226 -12.114504 44.703147 3.865237 -12.986295 44.344617 -10.762385 9.985893 -24.438097 10.775112 -0.000801 0.001017 -0.001202 -6.631089 -12.990768 -99.975832 -71.673262 -0.129205 -65.350896 75.021085 -30.926498 153.930622 -0.001553 -0.001465 -0.0 54.08568 -59.244891 -121.898171 -59.396474 -62.664082 -135.893737 -5.643008 19.377255 -102.696558
3.7116000000000002 70.6638 33.5042 -12.402658 -26.708922 8.37641 6.923771 12.500492 -1.222693 -0.101335 -8.381562 15.405677 -1.927587 14.243577 5.597497 4.005967 -27.064579 -0.464283 -0.000662 -0.0 0.001929 -0.001111 0.0 -0.00469 -9.652146 34.836043 11.199757 72.206291 -1.34045 14.535305 1.389289 0.308125 97.413151 -8.371894 34.584786 2.46797 0.569229 -0.56086 -0.084802 -136.757196 -39.018979 118.828971 -138.492081 4.896254 114.865401 -172.896435 -32.712542 117.378096 -168.112055 -30.286992 145.336239 -88.704059 63.71698 80.335263 -0.013924 -1.323115 -0.416137 10.904324 -7.440467 -0.973266 15.074306 52.520588 11.94287 -86.685737 -53.371866 -85.311509 0.048728 0.292442 -0.064788 -116.744164 -76.738281 -44.58006 75.747491 3.164102 -164.439249 -48.549125 -74.56894 -32.546486 68.483067 37.952844 -35.659692 46.131005 2.67221 -47.005196 -52.739788 -67.699696 -9.661463 167.855301 -32.687274 -112.442887 -3.186629 -9.699104 1.571959 163.024802 -3.904487 -143.252926 0.025028 -1.806408 0.568783 -9.855596 -62.544325 9.185814 -14.568709 50.564076 -11.685043 23.777264 -39.852158 23.829612 179.97893 75.750229 0.014417 164.645069 61.453971 -180.0 -9.848112 -66.416535 -80.474708 128.11705 52.628306 141.048523 179.97893 75.750229 0.014417 -156.34638 5.620249 85.057944 66.40201 -7.733463 -87.410787 34.967185 -3.669261 -15.553573
3.7019 70.79560000000001 33.7809 -12.630749 -26.498288 8.589088 4.753082 10.102521 83.264503 -5.912142 -2.864708 -68.843916 6.527707 17.070017 53.892144 -25.682239 -15.137992 -53.415366 -0.00243 0.0 -6.7e-05 -0.00243 0.0 -6.7e-05 -153.572266 7.494248 159.312562 -153.952303 49.425444 101.303308 119.343854 3.81887 -14.826606 -165.327517 53.893189 141.04715 4.416822 -4.400664 -0.511897 -118.959781 -4.955825 107.634842 -155.194154 -24.299945 122.142403 4.735633 14.113027 -7.107249 7.43268 -23.301074 -2.923043 -129.327983 52.113466 118.469229 -67.608228 -72.074793 -84.373739 -143.172462 62.494188 162.709091 -6.420723 -14.357457 -6.038681 41.828409 82.642531 -4.445076 155.417138 -2.951274 -161.719051 -161.578436 -75.801404 154.292981 18.73848 -80.248434 -64.330376 7.508811 -0.994736 2.586954 171.602909 -9.286316 -89.950854 -133.612171 -54.241199 -94.171831 162.919724 -37.929703 -122.627569 84.565217 56.481908 -68.278429 165.290485 -21.384973 -144.902264 163.414118 -4.989686 -142.995581 69.296662 72.947572 -87.016305 157.274004 44.236374 -169.284666 155.356975 49.79259 149.602912 -8.18676 18.639994 -2.905314 179.99316 75.747798 0.005627 164.535482 64.35483 17.060668 36.265585 56.730221 71.517849 -10.435307 39.335904 -125.890666 179.996834 75.751188 0.002166 -153.753591 5.85897 -63.977857 -71.439422 28.762584 -31.708394 66.500862 -47.263057 161.208108
3.6809000000000003 70.9603 34.2108 -12.719358 -26.735949 8.71639 8.832623 11.30929 -38.392864 3.431146 -7.09199 52.835852 -5.076208 15.204936 -11.271986 15.998609 -24.803707 19.056381 0.001782 0.0 0.000352 -0.003921 -0.0 0.000873 0.060761 -0.367427 -0.082085 140.573639 76.151094 -73.66621 58.13007 -18.948885 141.375466 -111.343107 76.417446 92.955617 1.84268 -1.827052 -0.253717 -37.477031 26.771579 32.686057 2.327279 -3.867557 -1.258364 4.964911 9.806097 1.416936 0.047399 -0.138706 -0.025787 11.872878 -26.432533 -1.539971 0.000593 -0.018518 -0.005645 7.395901 26.860166 4.087543 17.871442 62.501658 12.926301 -148.808529 13.138224 -143.403033 -3.268547 -26.755883 5.241282 -66.424252 8.826264 9.479315 101.34745 -17.551664 -84.248402 -140.035077 -71.999804 -119.126746 78.030607 38.690334 -42.4124 11.521874 -8.728929 -29.182123 155.195576 -24.29969 -122.142004 166.375485 -27.248903 -119.002843 -23.9033 -61.333927 -1.398651 163.717689 -5.54944 -143.315997 145.119034 0.268121 179.211709 73.707179 -78.001467 95.209629 149.120376 25.572689 145.198949 -2.59759 1.391191 1.536988 -0.000601 0.001282 0.000772 -6.320244 -12.155083 180.0 -35.143142 -62.776362 -73.724232 -158.411049 -5.190619 -176.849148 179.998235 75.750913 0.001821 -155.390542 4.971095 100.712858 67.700619 -15.323917 -145.756112 69.445319 39.361927 -3.178332
3.6790999999999996 71.0688 34.5236 -12.747355 -26.678215 8.872061 7.455934 11.403193 -0.0 -0.200262 -8.081881 14.58066 9.073088 20.68007 77.171121 -33.323367 -2.735403 -74.356848 -0.003429 0.0 -8.2e-05 -0.003429 0.0 -8.2e-05 -152.599035 12.08028 158.119972 -111.8919 42.99081 70.038778 -54.525807 -14.329446 -170.993626 65.766311 -66.547679 53.098297 -166.631501 -4.304699 89.77199 -86.337003 6.802008 32.858045 -14.22843 19.203656 9.559123 -168.812076 -20.646254 109.863735 -125.643795 49.83936 115.273116 -11.610481 33.697762 9.563229 0.005403 1.770505 0.555818 -156.257824 -13.739648 173.483005 -15.002646 -27.659061 -14.306506 -80.228611 -54.345342 -80.368327 3.907718 18.449288 -4.803834 147.208072 -50.065962 -130.97539 61.266879 -18.407164 167.056839 -155.304265 -63.961982 -132.267981 -51.060298 -41.203575 -12.856886 140.396447 -3.193421 -116.852898 1.161412 1.860934 -0.669503 61.005786 48.05987 -46.598986 -89.035318 -81.392908 -59.758634 -80.724775 -77.816245 -52.465826 13.61485 -53.680571 25.679272 -14.166316 -3.430272 2.622661 85.782634 -50.538282 84.155757 4.6615 -17.81195 7.962869 0.000396 -0.00055 -0.00051 -6.939116 -9.719304 56.87712 51.987568 18.744805 -82.644759 -95.147439 3.888465 -0.058438 -179.992236 75.749368 -0.008011 -153.739394 6.131504 -0.0 18.810668 76.106035 -164.661524 8.742219 8.051943 144.799605
3.6878 71.1707 34.7633 -12.724641 -26.631062 9.075958 5.226578 8.153508 100.874267 -5.473921 -1.169869 -85.97631 3.91692 33.560778 164.882955 -16.136882 43.7145 -154.318889 0.002001 0.0 1.6e-05 -0.003697 -0.0 0.000573 -0.164985 0.979236 0.218671 65.8084 2.617506 -16.612624 -177.488471 -13.024106 46.673565 162.09584 -30.17719 141.304334 -169.571893 -7.253857 89.930211 -115.650675 12.689171 53.033066 -173.385821 -52.45145 119.981735 -60.607771 56.694357 47.866324 -0.103295 0.300913 0.058608 2.673452 1.651617 0.196725 -0.021813 -1.72612 -0.541988 11.662871 -40.156508 -4.893653 0.09853 0.258443 0.090669 -113.135775 -43.90087 -112.07184 9.651943 34.836086 -11.199617 -59.975049 0.668418 -45.858876 -158.394607 24.931573 -64.745001 169.017481 18.320603 -139.312558 171.705928 -9.388391 -89.949504 137.983161 9.923149 -69.391239 152.104669 -18.556817 -121.367567 169.425582 -31.695103 -118.367636 -7.90459 -24.807544 3.012868 1.399019 12.623254 -2.184559 -0.003378 1.771457 -0.55606 -10.180662 0.107484 0.052364 7.144065 -15.707145 6.729214 24.012508 -41.366346 25.020773 179.999191 75.751009 0.000554 167.257268 64.387869 -165.921407 -13.704158 -64.710449 38.906658 113.175479 76.69479 -3.552011 -0.004485 -0.000479 -0.002243 54.486523 -58.011824 124.850682 79.280359 10.703736 100.073833 -32.607304 13.97976 170.855108
3.6754000000000002 71.2328 35.0777 -12.612924 -26.537717 9.199631 10.113384 8.459531 -83.120743 5.475002 -3.258222 97.842206 7.194099 31.522029 143.319803 -27.923687 35.52814 -130.870844 0.001564 -0.0 -0.004766 0.002044 0.0 0.001826 -148.057591 28.030963 152.902538 138.135017 -6.281955 124.575173 -22.20837 7.096284 103.788148 -0.126032 8.785596 1.226007 116.30977 -50.009713 56.952972 -132.712425 25.308539 87.460239 60.462681 -70.523195 15.711383 -175.6528 -42.422842 109.29024 -161.152889 -8.160671 143.465408 -5.111571 21.250318 4.815631 -145.119059 0.267169 -179.213698 11.904263 29.602616 -5.637184 -152.69393 39.284889 -147.934793 -11.914122 -26.040384 -13.665426 -3.206576 -26.010368 5.105393 -25.517843 -76.251174 44.775274 3.166399 -77.173173 130.110504 177.407442 -6.654091 -143.131948 93.743672 37.962913 -53.54833 -175.804677 -42.424649 -75.614925 138.492425 4.895982 -114.864772 4.702928 23.892703 3.01886 169.088879 -33.247348 -145.375885 163.595476 -5.418992 -143.053013 0.022368 -1.725309 0.541445 -7.056231 29.717316 -4.67147 157.329235 57.246228 150.512914 -0.527197 -2.592191 2.48824 -179.994092 75.750839 -0.004042 164.363197 66.742725 70.581539 57.668632 14.106517 23.481507 7.522738 59.16052 -124.75022 -179.999543 75.749171 -0.000313 -152.795333 5.710396 -2.346442 20.234472 78.108326 158.805935 -37.528677 9.102134 177.450963
